<svg width="640" height="480" xmlns="http://www.w3.org/2000/svg" xmlns:svg="http://www.w3.org/2000/svg">
 <!-- Created with SVG-edit - https://github.com/SVG-Edit/svgedit-->
 <defs>
  <filter height="200%" id="svg_6_blur" width="200%" x="-50%" y="-50%">
   <feGaussianBlur in="SourceGraphic" stdDeviation="3.3"/>
  </filter>
 </defs>
 <g class="layer">
  <title>Layer 1</title>
  <path d="m148.6289,81c-3.07556,1.17731 -4.01988,1.48261 -4.53901,1.65426c-0.54822,0.18127 -1.71768,0.58256 -2.32797,0.81467c-1.27829,0.48617 -1.92681,0.7724 -2.59105,1.0688c-0.68419,0.3053 -1.38361,0.63232 -2.10624,0.97127c-0.7483,0.35099 -1.52185,0.71906 -2.33046,1.09151c-1.7141,0.78953 -2.63392,1.18873 -3.58629,1.60439c-0.98362,0.4293 -1.99775,0.86815 -3.03153,1.33066c-1.05772,0.47321 -2.13444,0.9615 -3.21093,1.49097c-2.20197,1.08303 -3.28923,1.69135 -4.38354,2.31692c-1.11123,0.63523 -2.22371,1.3055 -3.34695,1.99999c-1.14501,0.70795 -2.30236,1.44453 -3.48149,2.2004c-2.43829,1.56304 -3.69613,2.37531 -4.9775,3.20284c-1.29941,0.83919 -2.60894,1.68952 -3.91499,2.5571c-1.30762,0.86863 -2.60613,1.74153 -3.87015,2.63727c-2.48088,1.75807 -3.64669,2.66286 -4.78483,3.56504c-1.12871,0.8947 -2.23192,1.80993 -3.32453,2.74148c-1.10256,0.94003 -2.20558,1.90851 -3.32453,2.90179c-2.32788,2.06641 -3.53778,3.15639 -4.78483,4.27283c-1.27393,1.14051 -2.56704,2.3004 -3.87015,3.47628c-1.31055,1.1826 -2.61995,2.36805 -3.91499,3.55643c-2.54844,2.33856 -3.77728,3.49004 -4.97483,4.62909c-1.17851,1.12093 -2.3283,2.23653 -3.44263,3.35604c-1.10332,1.10844 -2.18342,2.22069 -3.2184,3.35604c-2.06363,2.26376 -3.03122,3.44465 -3.98758,4.63384c-0.95712,1.19013 -1.88278,2.40053 -2.78041,3.6259c-0.89621,1.22344 -1.76607,2.45824 -2.60103,3.70606c-1.65856,2.47869 -2.42955,3.73433 -3.18767,4.98417c-0.7523,1.24024 -1.47465,2.48153 -2.16304,3.72344c-0.68149,1.22948 -1.33467,2.45529 -1.93881,3.68335c-1.18536,2.40955 -1.69871,3.61578 -2.19244,4.80841c-0.48712,1.17667 -0.93607,2.34851 -1.34984,3.51367c-0.40862,1.15067 -0.78703,2.29467 -1.12562,3.43353c-0.66547,2.23834 -0.9367,3.35172 -1.1972,4.45333c-0.25763,1.08948 -0.48728,2.17186 -0.68763,3.24647c-0.1982,1.06306 -0.37276,2.11827 -0.50824,3.16633c-0.26677,2.06364 -0.33764,3.08541 -0.39995,4.09469c-0.06149,0.99597 -0.09645,1.97837 -0.10912,2.94454c-0.01243,0.94821 -0.00585,1.87715 0.02541,2.78422c0.06012,1.74392 0.1239,2.57744 0.2033,3.38692c0.07763,0.79143 0.18124,1.5675 0.33186,2.3273c0.14981,0.75575 0.33568,1.50874 0.60093,2.24716c0.54549,1.51862 0.95964,2.26955 1.39652,3.02826c0.44687,0.77607 0.95424,1.5427 1.51128,2.29524c0.56309,0.76071 1.16704,1.50594 1.8252,2.21509c1.31252,1.4142 2.04681,2.05151 2.79037,2.66964c0.74453,0.61892 1.53161,1.2053 2.36036,1.75818c0.84159,0.56144 1.72996,1.09929 2.67428,1.59785c1.97094,1.04057 3.06179,1.49654 4.18423,1.96066c1.15237,0.4765 2.35002,0.9282 3.58463,1.35871c1.2555,0.43779 2.54056,0.85473 3.8537,1.23847c2.65511,0.7759 4.0139,1.10322 5.38144,1.42625c1.38036,0.32606 2.78593,0.62929 4.21845,0.91649c1.45886,0.29247 2.95351,0.5709 4.48752,0.83635c3.19103,0.55218 4.86239,0.80967 6.58262,1.0676c1.76773,0.26506 3.58614,0.51891 5.45618,0.7495c1.91691,0.23637 3.8844,0.45668 5.90463,0.62925c4.18152,0.3572 6.35184,0.44913 8.56512,0.53441c2.25403,0.08684 4.54684,0.13866 6.87329,0.17234c2.35609,0.03411 4.73831,0.047 7.14236,0.05211c4.85789,0.01033 7.30481,0.0065 9.76366,-0.0012c2.47281,-0.00773 4.96172,-0.02454 7.46822,-0.06946c2.52684,-0.04527 5.0763,-0.10836 7.64763,-0.2298c5.22739,-0.2469 7.88025,-0.47067 10.5516,-0.71372c2.68264,-0.24409 5.3607,-0.53263 8.02281,-0.85638c2.64099,-0.32118 5.24538,-0.66988 7.7986,-1.05677c4.93464,-0.74775 7.28421,-1.17483 9.56434,-1.60082c2.22333,-0.41538 4.39154,-0.8534 6.51304,-1.31329c2.09198,-0.4535 4.15641,-0.9286 6.1991,-1.43353c4.08561,-1.00991 6.127,-1.57154 8.17713,-2.13523c2.05407,-0.56478 4.10063,-1.14674 6.13633,-1.73813c2.02363,-0.58788 4.02575,-1.18203 6.0018,-1.77822c3.86256,-1.16536 5.73533,-1.74419 7.57254,-2.31574c1.80753,-0.56232 3.58695,-1.1245 5.33958,-1.69537c1.73665,-0.56566 3.45786,-1.13786 5.16019,-1.73547c3.40266,-1.19451 5.09102,-1.84003 6.78061,-2.49625c1.69446,-0.65811 3.38231,-1.33915 5.06304,-2.04007c1.68237,-0.7016 3.3568,-1.41985 5.01818,-2.16032c3.31674,-1.47825 4.94899,-2.25204 6.57465,-3.0247c1.61881,-0.76941 3.22131,-1.54812 4.80891,-2.32998c1.57614,-0.77622 3.13406,-1.55443 4.67437,-2.32998c3.03053,-1.5259 4.51473,-2.2801 5.97806,-3.02946c1.44661,-0.74078 2.87381,-1.48003 4.27523,-2.22978c1.38895,-0.74307 2.76007,-1.4911 4.09589,-2.26987c2.65019,-1.54504 3.92402,-2.37202 5.1808,-3.20759c1.25029,-0.83126 2.46963,-1.68528 3.65788,-2.55711c1.17825,-0.86449 2.32651,-1.74145 3.43365,-2.63726c2.17271,-1.75799 3.18904,-2.66408 4.18688,-3.55911c0.98391,-0.88255 1.93607,-1.76959 2.86411,-2.65463c0.91624,-0.87379 1.80885,-1.74703 2.68474,-2.61455c1.72151,-1.70508 2.56148,-2.54868 3.38834,-3.3869c0.81877,-0.83004 1.62288,-1.65845 2.3977,-2.49698c0.7692,-0.83245 1.52054,-1.67044 2.21836,-2.53707c1.38971,-1.7259 1.99997,-2.64127 2.58973,-3.56503c0.59064,-0.92513 1.13847,-1.87433 1.64882,-2.84168c0.51157,-0.96968 0.9899,-1.95673 1.42459,-2.96191c0.87266,-2.01797 1.23627,-3.05542 1.59715,-4.0935c0.361,-1.03841 0.69393,-2.08367 1.00602,-3.13159c0.31109,-1.04461 0.6015,-2.08919 0.87151,-3.13159c0.53383,-2.06105 0.76774,-3.08256 0.99656,-4.09112c0.22524,-0.9928 0.43435,-1.96933 0.62334,-2.92718c0.18427,-0.93397 0.35267,-1.84327 0.48882,-2.72678c0.25711,-1.6686 0.3346,-2.45463 0.39996,-3.20639c0.06262,-0.72058 0.10295,-1.41424 0.12855,-2.08283c0.02473,-0.64607 0.03504,-1.27275 0.03887,-1.88243c0.00745,-1.17922 0.0035,-1.75357 0.00131,-2.3181c-0.00216,-0.55385 -0.00663,-1.09616 -0.01943,-1.62591c-0.0125,-0.51649 -0.02892,-1.01901 -0.06426,-1.50567c-0.06724,-0.92599 -0.12819,-1.36305 -0.20331,-1.78371c-0.07329,-0.41043 -0.16815,-0.81114 -0.293,-1.20106c-0.12503,-0.39051 -0.27685,-0.77978 -0.47237,-1.16099c-0.41054,-0.80045 -0.6973,-1.19668 -0.99656,-1.60439c-0.30978,-0.42207 -0.65296,-0.84265 -1.02247,-1.26118c-0.37715,-0.42718 -0.77674,-0.85015 -1.20185,-1.26118c-0.85864,-0.8302 -1.32325,-1.21756 -1.78982,-1.60082c-0.46592,-0.38274 -0.94395,-0.75191 -1.43058,-1.10888c-0.48472,-0.35557 -0.97622,-0.69958 -1.47541,-1.02872c-0.98732,-0.65097 -1.49165,-0.95118 -1.99179,-1.24812c-0.49646,-0.29476 -0.99544,-0.57995 -1.49484,-0.85905c-0.49716,-0.27785 -0.99601,-0.54976 -1.49484,-0.81897c-0.99547,-0.53722 -1.49405,-0.80343 -1.99179,-1.06762c-0.49454,-0.26249 -0.9857,-0.52022 -1.47541,-0.76686c-0.48165,-0.24259 -0.95651,-0.47651 -1.43058,-0.6867c-0.90833,-0.40272 -1.35726,-0.56348 -1.7938,-0.71373c-0.42493,-0.14625 -0.8459,-0.27566 -1.26015,-0.39946c-0.40829,-0.12202 -0.81482,-0.23626 -1.21532,-0.35939c-0.80116,-0.2463 -1.19823,-0.38811 -1.59451,-0.53559c-0.39667,-0.14763 -0.78836,-0.30318 -1.17642,-0.45958c-0.38396,-0.15475 -0.76019,-0.31103 -1.13159,-0.45958c-0.71461,-0.28586 -1.05903,-0.41479 -1.39652,-0.53203c-0.32894,-0.11427 -0.65497,-0.21784 -0.98063,-0.30728c-0.32286,-0.08868 -0.64873,-0.16751 -0.98063,-0.22712c-0.6772,-0.12162 -1.03354,-0.15092 -1.39652,-0.17932c-0.37018,-0.02897 -0.74797,-0.04622 -1.13159,-0.05745c-0.3884,-0.01137 -0.78097,-0.01566 -1.17642,-0.01737c-0.79593,-0.00343 -1.19455,-0.00045 -1.59317,-0.00238c-0.39865,-0.00193 -0.79733,-0.00609 -1.19589,-0.01737c-0.39871,-0.01129 -0.79772,-0.02683 -1.19589,-0.05745c-0.79839,-0.06138 -1.19646,-0.11867 -1.59581,-0.17694c-0.40224,-0.05869 -0.80645,-0.12627 -1.21532,-0.19239c-0.41364,-0.06689 -0.83258,-0.13631 -1.26015,-0.19239c-0.87664,-0.11497 -1.33125,-0.14849 -1.7938,-0.17694c-0.46994,-0.02891 -0.94735,-0.04621 -1.43058,-0.05745c-0.48809,-0.01135 -0.98026,-0.01566 -1.47541,-0.01737c-0.99522,-0.00343 -1.49366,-0.00192 -1.99312,0c-0.50141,0.00193 -1.00593,0.00615 -1.51428,0.01737c-0.51346,0.01133 -1.03309,0.02724 -1.55911,0.05745c-1.07843,0.06194 -1.63094,0.1182 -2.19245,0.17813c-0.5703,0.06087 -1.14701,0.13235 -1.72954,0.20976c-0.58809,0.07815 -1.17974,0.16268 -1.77437,0.24983c-1.19488,0.17513 -1.79277,0.26545 -2.39174,0.35627c-0.60126,0.09117 -1.20556,0.18469 -1.81326,0.28457c-0.61339,0.10081 -1.23305,0.20633 -1.85809,0.32464c-1.27894,0.24208 -1.93029,0.3862 -2.59238,0.53441c-0.67334,0.15073 -1.35561,0.31137 -2.04794,0.47695c-0.70287,0.16811 -1.41492,0.34236 -2.13761,0.51703c-1.47453,0.35638 -2.22748,0.53295 -2.98969,0.71372c-0.77251,0.18321 -1.55558,0.36995 -2.34691,0.56914c-0.80317,0.20217 -1.61727,0.41295 -2.43659,0.6493c-1.68028,0.48471 -2.52781,0.7717 -3.383,1.06761c-0.86162,0.29813 -1.71841,0.61284 -2.56814,0.93654c-0.8431,0.32118 -1.67052,0.6479 -2.47845,0.97661c-1.55244,0.63163 -2.28369,0.94375 -2.99235,1.24693c-0.6925,0.29627 -1.37226,0.59318 -2.04495,0.89379c-0.67467,0.30149 -1.35469,0.61133 -2.04495,0.93386c-1.44588,0.6756 -2.20556,1.04397 -2.99235,1.42625c-0.81039,0.39375 -1.63793,0.80129 -2.47845,1.2211c-0.85233,0.42572 -1.71047,0.85894 -2.56814,1.30127c-1.71217,0.88303 -2.5531,1.33063 -3.383,1.78133c-0.8244,0.44771 -1.63813,0.90212 -2.43659,1.37073c-0.79607,0.46721 -1.58309,0.94497 -2.34691,1.4509c-1.53219,1.01486 -2.26398,1.57203 -2.99101,2.13997c-0.7324,0.57213 -1.4505,1.17004 -2.15706,1.79024c-0.71398,0.62672 -1.41945,1.27592 -2.1122,1.95056c-1.413,1.37607 -2.09712,2.10829 -2.79304,2.84657c-0.70363,0.74644 -1.40423,1.5072 -2.1122,2.27254c-0.71245,0.77017 -1.42593,1.54588 -2.15706,2.31263c-1.46534,1.53673 -2.22607,2.28314 -2.98703,3.02826c-0.76079,0.74496 -1.52933,1.48351 -2.28861,2.22978c-0.7595,0.74649 -1.51782,1.49523 -2.24375,2.26987c-1.45544,1.55314 -2.12889,2.37584 -2.7917,3.21233c-0.67011,0.84571 -1.31948,1.72289 -1.96124,2.62658c-0.65527,0.92273 -1.3054,1.87925 -1.96124,2.86705c-1.37018,2.06369 -2.07031,3.15347 -2.79038,4.27402c-0.73766,1.14793 -1.48278,2.32384 -2.22432,3.52838c-0.75206,1.22162 -1.5019,2.46234 -2.22432,3.72877c-1.45477,2.55028 -2.12647,3.85371 -2.78639,5.16111c-0.65988,1.30732 -1.29217,2.62537 -1.90294,3.95055c-0.61035,1.32429 -1.20027,2.6547 -1.7684,3.99063c-1.13354,2.6654 -1.66534,4.00546 -2.19376,5.344c-0.52795,1.33733 -1.04165,2.67877 -1.53969,4.02537c-0.49854,1.34797 -0.98519,2.70201 -1.45,4.06545c-0.93403,2.73982 -1.36621,4.12749 -1.79249,5.51977c-0.42646,1.39285 -0.83428,2.78813 -1.22128,4.18302c-0.38498,1.38758 -0.75195,2.76871 -1.08675,4.14293c-0.65781,2.7 -0.93432,4.03048 -1.19455,5.34638c-0.25791,1.30421 -0.48846,2.60542 -0.68763,3.9078c-0.19948,1.30436 -0.37487,2.61867 -0.50824,3.94789c-0.27204,2.71109 -0.3383,4.10622 -0.39996,5.52094c-0.06233,1.43011 -0.09648,2.87145 -0.10912,4.31796c-0.01262,1.4464 -0.00544,2.88768 0.02541,4.31796c0.06057,2.80773 0.12442,4.17586 0.20331,5.52213c0.07801,1.33112 0.18187,2.6519 0.33185,3.96525c0.1503,1.31604 0.33562,2.63888 0.60092,3.96525c0.54499,2.72457 0.95738,4.11267 1.39918,5.52331c0.45047,1.43831 0.96825,2.88581 1.55015,4.33534c0.58859,1.4662 1.23009,2.93131 1.95375,4.37538c1.45514,2.90375 2.31164,4.30471 3.18369,5.69078c0.86913,1.38139 1.78895,2.7281 2.75201,4.03605c0.95459,1.29645 1.94048,2.55537 2.97623,3.75552c2.02313,2.34425 3.10585,3.41603 4.18556,4.4545c1.06624,1.02551 2.16721,2.00541 3.30212,2.94188c1.13346,0.93527 2.30485,1.83966 3.52633,2.70138c2.48321,1.75184 3.82184,2.56627 5.1768,3.38572c1.36536,0.82576 2.75885,1.623 4.16912,2.3928c1.4028,0.76572 2.80789,1.50123 4.21396,2.19236c2.72589,1.33986 4.06722,1.93023 5.37878,2.49269c1.28136,0.54949 2.55282,1.06044 3.81933,1.53105c1.25165,0.46509 2.50658,0.9004 3.77447,1.29058c2.54549,0.78333 3.86028,1.10749 5.18744,1.42863c1.33936,0.32411 2.69937,0.62171 4.07644,0.89912c1.38809,0.27964 2.79211,0.54003 4.21097,0.7789c2.86506,0.48233 4.3179,0.68754 5.77874,0.89184c1.46905,0.20543 2.94907,0.39684 4.43969,0.5745c1.49909,0.17866 3.00869,0.34574 4.52937,0.49431c3.06766,0.29972 4.6186,0.41894 6.17868,0.53441c1.56914,0.11614 3.14881,0.21845 4.73866,0.30728c1.59916,0.08934 3.2086,0.16724 4.82834,0.22712c3.2681,0.12085 4.91789,0.15365 6.5773,0.17456c1.66914,0.02101 3.34871,0.02169 5.03761,-0.01201c1.69949,-0.03392 3.41005,-0.09231 5.12733,-0.21245c3.4724,-0.24292 5.2189,-0.47042 6.97326,-0.71133c1.765,-0.24237 3.53103,-0.52821 5.29773,-0.83902c1.77047,-0.31147 3.53641,-0.64911 5.29773,-0.99931c3.50783,-0.69744 5.24482,-1.06259 6.9746,-1.42151c1.72266,-0.35746 3.43818,-0.71823 5.14673,-1.08618c1.70499,-0.36719 3.40616,-0.7394 5.10191,-1.12624c3.39281,-0.77398 5.08491,-1.18563 6.7753,-1.60439c1.68927,-0.41848 3.37146,-0.84971 5.04361,-1.29591c1.6657,-0.44449 3.31927,-0.89912 4.95389,-1.37609c3.23305,-0.9434 4.81317,-1.45005 6.37535,-1.95828c1.54715,-0.50334 3.07159,-1.01989 4.57422,-1.54576c1.48706,-0.52041 2.95252,-1.04851 4.39484,-1.58582c2.83552,-1.05634 4.21784,-1.59819 5.5834,-2.13879c1.35373,-0.53593 2.69222,-1.08004 4.01517,-1.63793c1.31863,-0.55607 2.62911,-1.12383 3.92545,-1.71811c2.605,-1.19425 3.89407,-1.83803 5.1821,-2.49742c1.29448,-0.66267 2.57951,-1.35217 3.84775,-2.07481c1.27244,-0.72503 2.53286,-1.47533 3.75803,-2.27521c2.45816,-1.60487 3.62634,-2.48853 4.78616,-3.38811c1.16973,-0.90727 2.31921,-1.86013 3.45606,-2.85368c1.15681,-1.01097 2.30914,-2.06782 3.45606,-3.17433c2.38183,-2.29794 3.56768,-3.53742 4.78218,-4.8025c1.23545,-1.28691 2.46875,-2.60261 3.69973,-3.93584c1.23387,-1.33638 2.45369,-2.67757 3.6549,-4.01602c2.35272,-2.62153 3.47793,-3.90428 4.58021,-5.15757c1.07883,-1.22662 2.13147,-2.43082 3.16307,-3.6112c1.01201,-1.15792 2.00404,-2.29586 2.98373,-3.41081c1.91271,-2.17678 2.85693,-3.2352 3.7896,-4.27876c0.92099,-1.0305 1.83428,-2.04692 2.73556,-3.0541c0.89252,-0.99741 1.77729,-1.98616 2.64587,-2.97394c1.72087,-1.95709 2.55792,-2.93996 3.3883,-3.91775c0.82388,-0.97012 1.63395,-1.9348 2.4366,-2.8871c0.79185,-0.93948 1.57014,-1.86542 2.34688,-2.76686c1.50625,-1.74805 2.25422,-2.57699 2.98704,-3.38216c0.7136,-0.78404 1.41623,-1.54041 2.09875,-2.2752c0.66217,-0.71285 1.30704,-1.40094 1.9194,-2.07481c1.16134,-1.278 1.6904,-1.89616 2.19376,-2.49625c0.48615,-0.57955 0.94617,-1.14746 1.3887,-1.70073c0.43043,-0.53812 0.84441,-1.0666 1.25419,-1.58049c0.798,-1.00079 1.1989,-1.48445 1.59447,-1.96065c0.3887,-0.46791 0.77193,-0.92463 1.13759,-1.37608c0.3558,-0.43927 0.69882,-0.86697 1.00304,-1.29592c0.57352,-0.80866 0.79769,-1.21237 0.99656,-1.60558c0.19257,-0.38075 0.35358,-0.76275 0.4918,-1.14361c0.1368,-0.37693 0.25276,-0.75842 0.35726,-1.14361c0.21274,-0.78417 0.30279,-1.19119 0.40394,-1.6032c0.10249,-0.4175 0.20629,-0.8389 0.31842,-1.26118c0.11241,-0.42328 0.22837,-0.84555 0.36325,-1.26118c0.26632,-0.82077 0.43125,-1.21457 0.59527,-1.60201c0.16189,-0.3824 0.33217,-0.75601 0.49478,-1.12626c0.16024,-0.36486 0.31982,-0.72413 0.44996,-1.08617c0.25465,-0.70836 0.33299,-1.06878 0.39731,-1.42625c0.0639,-0.35521 0.10328,-0.71222 0.12855,-1.0688c0.02521,-0.356 0.03504,-0.71251 0.03887,-1.0688c0.00763,-0.71251 0.00347,-1.0688 0.00131,-1.42507c-0.00216,-0.35626 -0.00681,-0.7126 -0.01943,-1.0688c-0.01262,-0.35634 -0.03002,-0.71297 -0.06426,-1.0688c-0.06867,-0.71357 -0.13068,-1.0693 -0.20063,-1.42269c-0.06958,-0.35146 -0.15349,-0.69727 -0.25413,-1.03406c-0.09881,-0.3307 -0.20817,-0.6516 -0.34382,-0.9539c-0.25823,-0.57548 -0.42675,-0.8299 -0.59661,-1.06881c-0.16493,-0.23199 -0.34549,-0.44703 -0.53368,-0.64929c-0.1853,-0.19917 -0.38043,-0.38702 -0.57848,-0.56914c-0.39354,-0.36193 -0.59612,-0.53708 -0.79593,-0.71372c-0.19881,-0.17578 -0.39737,-0.34915 -0.59794,-0.51704c-0.19808,-0.1658 -0.39549,-0.32723 -0.59794,-0.47694c-0.39266,-0.29037 -0.59548,-0.41654 -0.79858,-0.53321c-0.19996,-0.11488 -0.40549,-0.21824 -0.61738,-0.30728c-0.2121,-0.08914 -0.43222,-0.16782 -0.66221,-0.22712c-0.47495,-0.12249 -0.73291,-0.1509 -0.99522,-0.17933c-0.26727,-0.02896 -0.53937,-0.04617 -0.8132,-0.05745c-0.27362,-0.01128 -0.54545,-0.01564 -0.8132,-0.01737c-0.51556,-0.00332 -0.76053,-0.00118 -1.00055,-0.00118c-0.23999,0 -0.48499,0 -0.73994,0c-0.26991,0 -0.55975,0 -0.87449,0c-0.72416,0 -1.1419,0 -1.59451,0c-0.4825,0 -0.9899,0 -1.51726,0c-0.54229,0 -1.09455,0 -1.6518,0c-1.10951,0 -1.65329,-0.00149 -2.19111,0.00238c-0.53584,0.00386 -1.07381,0.01242 -1.61741,0.03474c-0.554,0.02274 -1.12253,0.05575 -1.70712,0.11489c-1.24363,0.12582 -1.90471,0.23744 -2.59505,0.35746c-0.72057,0.12528 -1.46659,0.27294 -2.23776,0.43687c-0.79812,0.16966 -1.61917,0.35594 -2.46203,0.55712c-1.75487,0.41886 -2.65977,0.65101 -3.58231,0.88947c-0.93805,0.24247 -1.88668,0.49537 -2.8417,0.76153c-0.96238,0.26821 -1.92704,0.5452 -2.88653,0.84167c-1.9149,0.5917 -2.85444,0.91739 -3.79225,1.24931c-0.94605,0.33484 -1.90043,0.69011 -2.87159,1.06346c-0.99945,0.38422 -2.02865,0.79249 -3.09583,1.22378c-2.28426,0.92316 -3.50479,1.42998 -4.77023,1.95234c-1.29205,0.53336 -2.59271,1.07293 -3.8851,1.61121c-1.26809,0.52817 -2.49426,1.04047 -3.66086,1.53106c-2.09108,0.87935 -2.9875,1.25737 -3.7896,1.60913c-0.7348,0.32226 -1.41744,0.6345 -2.05839,0.96059c-0.63608,0.32362 -1.27396,0.67739 -1.92387,1.08083c-1.479,0.91811 -2.29977,1.5058 -3.19962,2.14353c-0.96639,0.68488 -1.97506,1.42502 -3.01508,2.21242c-1.07421,0.81328 -2.16179,1.65615 -3.23934,2.53305c-2.15586,1.7544 -3.17697,2.65575 -4.17094,3.55317c-0.97917,0.88406 -1.92168,1.77461 -2.82524,2.672c-0.89021,0.8841 -1.74772,1.77136 -2.55618,2.672c-1.58176,1.76214 -2.2971,2.66652 -2.99367,3.56623c-0.69164,0.89333 -1.35209,1.80143 -1.98665,2.72411c-0.63715,0.9264 -1.25528,1.87315 -1.8521,2.84434c-1.22168,1.98807 -1.80286,3.03432 -2.3984,4.10182c-0.60907,1.09174 -1.21715,2.21603 -1.83267,3.37073c-0.63091,1.18357 -1.26906,2.40122 -1.92238,3.65129c-1.35954,2.60129 -2.06593,3.95435 -2.78638,5.33806c-0.73288,1.40764 -1.47219,2.8343 -2.20489,4.27788c-0.73562,1.4493 -1.4644,2.90108 -2.16006,4.35802c-1.37055,2.87038 -1.99023,4.29207 -2.58708,5.69434c-0.5876,1.38055 -1.14136,2.74949 -1.66823,4.10553c-0.52009,1.33858 -1.01575,2.66684 -1.48888,3.98528c-0.93242,2.59829 -1.36796,3.8877 -1.7938,5.16825c-0.42252,1.27063 -0.82722,2.53572 -1.20185,3.79825c-0.3721,1.25397 -0.72376,2.50473 -1.02247,3.75818c-0.59296,2.48815 -0.80171,3.74035 -0.9979,4.98774c-0.19543,1.24269 -0.35397,2.48489 -0.4918,3.72342c-0.13719,1.23282 -0.25139,2.46129 -0.35726,3.68335c-0.20976,2.42101 -0.30677,3.6191 -0.39597,4.80843c-0.0885,1.17987 -0.16517,2.35099 -0.20182,3.51369c-0.03634,1.15315 -0.04988,2.29916 0.02244,3.4335c0.14333,2.24838 0.35528,3.35816 0.60591,4.45689c0.25194,1.10436 0.58341,2.20503 0.99106,3.2986c0.41462,1.11225 0.90216,2.22941 1.48438,3.33867c1.21316,2.31128 1.98665,3.45927 2.78905,4.63026c0.823,1.20099 1.71905,2.39976 2.68176,3.59118c0.97977,1.21254 2.01654,2.41775 3.13019,3.59118c2.26185,2.38328 3.51181,3.50792 4.78084,4.63026c1.2822,1.13399 2.62096,2.24379 4.00617,3.33867c1.40513,1.11062 2.86019,2.20995 4.36495,3.2986c3.08911,2.23485 4.71779,3.33709 6.37933,4.4545c1.69113,1.13733 3.43009,2.27282 5.22149,3.39879c1.82141,1.14484 3.69076,2.28641 5.6251,3.39879c3.9618,2.27834 6.04807,3.36242 8.17182,4.45333c2.15711,1.10806 4.37057,2.1981 6.63261,3.28121c2.29689,1.0998 4.64328,2.19215 7.03621,3.28121c4.89291,2.22686 7.40983,3.33193 9.95367,4.45097c2.56388,1.12785 5.14564,2.25048 7.73732,3.36406c2.58778,1.11189 5.16836,2.21009 7.73732,3.28387c5.04576,2.10903 7.52257,3.11323 9.96693,4.09707c2.41793,0.97322 4.82515,1.92605 7.23058,2.86172c2.40598,0.9359 4.82731,1.86372 7.27538,2.78154c4.98871,1.87035 7.5587,2.79994 10.17027,3.74437c2.64858,0.9578 5.33408,1.91743 8.04971,2.88176c2.73887,0.97259 5.49897,1.94583 8.27398,2.92182c5.57327,1.96016 8.36406,2.93802 11.15217,3.91656c2.78401,0.97708 5.56199,1.95157 8.33228,2.92182c2.75995,0.96664 5.50785,1.92817 8.24256,2.88176c5.41771,1.88913 8.09941,2.81864 10.76286,3.74081c2.64691,0.91646 5.28028,1.82569 7.90176,2.72943c2.61114,0.90015 5.21459,1.79612 7.81207,2.68937c5.18457,1.78294 7.77469,2.6742 10.36287,3.5603c2.581,0.88365 5.1527,1.76005 7.7149,2.61989c2.5442,0.85378 5.06961,1.69378 7.58036,2.49965c4.93147,1.5828 7.36278,2.3149 9.761,3.0259c2.36112,0.69999 4.69243,1.36788 6.99138,2.00802c2.26009,0.62929 4.48605,1.23233 6.67746,1.80759c4.25978,1.11823 6.3355,1.63458 8.36847,2.13879c1.98893,0.49328 3.93601,0.96531 5.84033,1.41616c1.85742,0.43973 3.66959,0.86012 5.43675,1.25584c3.38432,0.75786 5.0055,1.09915 6.57595,1.42507c1.51887,0.31522 2.98871,0.60967 4.40984,0.88175c1.36936,0.26219 2.68915,0.50576 3.96131,0.72144c2.38904,0.40502 3.51236,0.56618 4.58684,0.71375c1.02704,0.14107 2.01113,0.26222 2.9538,0.36471c0.90161,0.09801 1.766,0.18089 2.59505,0.24449c1.55628,0.11941 2.28977,0.15134 2.9937,0.18051c0.67571,0.028 1.32471,0.04596 1.94775,0.05743c0.59803,0.01101 1.17229,0.01566 1.72355,0.01737c1.0378,0.00323 1.52611,0.0012 1.99446,0.0012c0.44847,0 0.87698,0 1.2856,0c0.38861,0 0.7574,0 1.10617,0c0.63781,0 0.92698,0 1.19722,0c0.25224,0 0.48764,0 0.70703,0c0.20443,0 0.395,0 0.57255,0c0.32018,0 0.46489,0 0.60059,0c0.12773,0 0.24847,0 0.36325,0c0.10979,0 0.21556,0 0.31836,0c0.20066,0 0.30029,0 0.39999,0c0.09963,0 0.19932,0 0.29896,0l0.09963,0l0.09969,0l0.09963,0" fill="none" filter="url(#svg_6_blur)" id="svg_6" stroke="#000000" stroke-dasharray="null" stroke-linecap="null" stroke-linejoin="null" stroke-width="5"/>
 </g>
</svg>