<svg width="758" height="333" xmlns="http://www.w3.org/2000/svg">
 <g id="Layer_1">
  <title>Layer 1</title>
  <path stroke="#409eff" opacity="0.6" d="m234.04428,60c0,-1 0,-2 0,-3c0,-1 0.22718,-2.45881 -0.74106,-3c-0.68464,-0.38268 -1.3515,-2.48626 -2.96423,-3c-1.44247,-0.45951 -2.96423,-1 -5.18739,-1c-1.48211,0 -4.44634,0 -8.89268,0c-4.44634,0 -9.67602,2.83393 -16.30324,6c-5.96858,2.85141 -13.60476,6.46745 -19.26746,12c-4.68806,4.58032 -10.04058,10.60642 -12.59796,16c-2.67922,5.65056 -4.44075,13.81557 -5.18739,22c-0.72435,7.94006 0.03608,16.28912 1.48211,21c2.04499,6.66219 6.36174,10.54536 11.11584,15c4.9075,4.59837 10.23372,6.56731 16.30324,9c6.54941,2.62503 13.3113,3.49937 20.74958,4c7.40136,0.49814 15.67432,0.86606 25.93697,-2c8.27401,-2.31068 17.98769,-5.37547 25.19591,-10c6.89053,-4.4207 11.8569,-10 14.82113,-15c2.96423,-5 5.44169,-9.87605 6.66951,-15c0.94007,-3.92311 1.48211,-8 1.48211,-11c0,-3 0,-6 0,-8c0,-2 0.56718,-4.15224 0,-6c-0.40106,-1.30656 -1.48211,-3 -2.22317,-4c-0.74106,-1 -1.25493,-3.45881 -2.22317,-4c-1.3693,-0.76537 -2.96423,-1 -5.18739,-1c-2.22317,0 -5.2096,-0.48873 -8.15162,0c-3.03256,0.50377 -6.68785,2.93919 -10.37479,5c-5.21411,2.91443 -8.92249,5.95021 -12.59796,10c-4.48317,4.93976 -8.07641,9.07816 -10.37479,13c-3.59017,6.12611 -6.88701,12.88137 -8.89268,20c-2.49842,8.86755 -4.44188,15.8355 -5.18739,25c-0.48516,5.96417 0.46906,14.19801 2.96423,20c2.68221,6.23695 6.41712,11.56532 11.11584,15c4.96241,3.62743 11.15197,5.70383 16.30324,7c9.7194,2.4456 15.54084,3.49963 25.19591,4c8.14561,0.42213 18.5622,0.56412 29.64225,-1c10.42323,-1.47141 21.7638,-5.53653 32.60648,-10c9.21451,-3.79321 18.67967,-9.42604 27.41908,-14c6.80468,-3.56139 12.59796,-8 18.52641,-12c4.44634,-3 8.26673,-7.87389 11.8569,-14c2.29836,-3.92184 5.11134,-8.56134 6.66951,-14c1.36257,-4.75597 2.58886,-7.87856 2.96423,-11c0.23741,-1.97417 0,-4 0,-6c0,-1 0.22717,-2.4588 -0.74106,-3c-0.68465,-0.38268 -0.79746,-0.61732 -1.48211,-1c-1.93648,-1.08239 -2.83362,-2.48626 -4.44634,-3c-1.44247,-0.4595 -3.70528,-1 -5.18739,-1c-2.22317,0 -4.44634,0 -7.41056,0c-1.48211,0 -4.44634,0 -7.41056,0c-2.96423,0 -5.98544,-0.26855 -8.89268,1c-3.79714,1.65685 -7.66786,4.28867 -11.11584,7c-4.09978,3.22385 -7.55548,8.8118 -11.11584,14c-4.64214,6.76459 -8.94899,13.20551 -12.59796,21c-3.89805,8.32652 -7.20567,18.76324 -9.63373,30c-1.91253,8.85095 -2.96423,20.9584 -2.96423,33c0,12.0416 2.79656,26.00618 9.63373,36c9.26892,13.54831 23.40605,21.39769 39.27598,27c18.98174,6.70084 40.75809,8 63.73084,8c25.93697,0 49.53396,-4.15491 68.17718,-7c22.13992,-3.37869 37.08181,-3.3042 54.83816,-5c14.8579,-1.41898 28.94059,-4.54678 42.98126,-7c9.66639,-1.68893 19.42708,-4.29971 27.41908,-8c9.11227,-4.21898 13.33901,-8 17.78535,-11l3.70528,-3l0.74106,-1" id="svg_10" stroke-width="21" fill="none"/>
  <rect stroke="#409eff" id="svg_11" height="45" width="0" y="67" x="487" opacity="NaN" stroke-width="19" fill="none"/>
  <g transform="rotate(28.7417 638.335 206.134)" opacity="0.67" id="svg_16">
   <rect id="svg_12" height="32" width="2" y="178" x="637" stroke-width="17" stroke="#409eff" fill="none"/>
   <path transform="rotate(-180 638.335 228.768)" stroke="#409eff" id="svg_13" d="m630.33508,234.26788l8,-11l8,11l-16,0z" stroke-width="8" fill="none"/>
  </g>
 </g>
</svg>